HIERARCHY
ROOT Hips
{
	OFFSET -0.001795 -0.223333 0.028219
	CHANNELS 6 Xposition Yposition Zposition Zrotation Yrotation Xrotation 
	JOINT LeftUpLeg
	{
		OFFSET 0.069520 -0.091406 -0.006815
		CHANNELS 3 Zrotation Yrotation Xrotation
		JOINT LeftLeg
		{
			OFFSET 0.034277 -0.375199 -0.004496
			CHANNELS 3 Zrotation Yrotation Xrotation
			JOINT LeftFoot
			{
				OFFSET -0.013596 -0.397961 -0.043693
				CHANNELS 3 Zrotation Yrotation Xrotation
				JOINT LeftToe
				{
					OFFSET 0.026358 -0.055791 0.119288
					CHANNELS 3 Zrotation Yrotation Xrotation
					End Site
					{
						OFFSET 0.000000 0.000000 0.000000
					}
				}
			}
		}
	}
	JOINT RightUpLeg
	{
		OFFSET -0.067670 -0.090522 -0.004320
		CHANNELS 3 Zrotation Yrotation Xrotation
		JOINT RightLeg
		{
			OFFSET -0.038290 -0.382569 -0.008850
			CHANNELS 3 Zrotation Yrotation Xrotation
			JOINT RightFoot
			{
				OFFSET 0.015774 -0.398415 -0.042312
				CHANNELS 3 Zrotation Yrotation Xrotation
				JOINT RightToe
				{
					OFFSET -0.025372 -0.048144 0.123348
					CHANNELS 3 Zrotation Yrotation Xrotation
					End Site
					{
						OFFSET 0.000000 0.000000 0.000000
					}
				}
			}
		}
	}
	JOINT Spine
	{
		OFFSET -0.002533 0.108963 -0.026696
		CHANNELS 3 Zrotation Yrotation Xrotation
		JOINT Spine1
		{
			OFFSET 0.005487 0.135180 0.001092
			CHANNELS 3 Zrotation Yrotation Xrotation
			JOINT Spine2
			{
				OFFSET 0.001457 0.052922 0.025425
				CHANNELS 3 Zrotation Yrotation Xrotation
				JOINT Neck
				{
					OFFSET -0.002778 0.213870 -0.042857
					CHANNELS 3 Zrotation Yrotation Xrotation
					JOINT Head
					{
						OFFSET 0.005152 0.064970 0.051349
						CHANNELS 3 Zrotation Yrotation Xrotation
						End Site
						{
							OFFSET 0.000000 0.000000 0.000000
						}
					}
				}
				JOINT LeftShoulder
				{
					OFFSET 0.078845 0.121749 -0.034090
					CHANNELS 3 Zrotation Yrotation Xrotation
					JOINT LeftArm
					{
						OFFSET 0.090977 0.030469 -0.008868
						CHANNELS 3 Zrotation Yrotation Xrotation
						JOINT LeftForeArm
						{
							OFFSET 0.259612 -0.012772 -0.027456
							CHANNELS 3 Zrotation Yrotation Xrotation
							JOINT LeftHand
							{
								OFFSET 0.249234 0.008986 -0.001171
								CHANNELS 3 Zrotation Yrotation Xrotation
								End Site
								{
									OFFSET 0.000000 0.000000 0.000000
								}
							}
						}
					}
				}
				JOINT RightShoulder
				{
					OFFSET -0.081759 0.118833 -0.038615
					CHANNELS 3 Zrotation Yrotation Xrotation
					JOINT RightArm
					{
						OFFSET -0.096012 0.032551 -0.009143
						CHANNELS 3 Zrotation Yrotation Xrotation
						JOINT RightForeArm
						{
							OFFSET -0.253742 -0.013329 -0.021401
							CHANNELS 3 Zrotation Yrotation Xrotation
							JOINT RightHand
							{
								OFFSET -0.255298 0.007772 -0.005559
								CHANNELS 3 Zrotation Yrotation Xrotation
								End Site
								{
									OFFSET 0.000000 0.000000 0.000000
								}
							}
						}
					}
				}
			}
		}
	}
}
MOTION
Frames: 15
Frame Time: 0.050000
0.000000 0.946509 0.000000 -1.725361 -0.152619 6.857866 6.017327 -0.339152 -4.372593 5.635418 -0.438228 -1.978066 9.275978 19.410758 20.249543 0.000000 0.000000 0.000000 -4.343837 0.617024 -7.070873 -2.872202 0.068678 -3.498536 2.196032 -4.273076 21.747642 0.000000 0.000000 0.000000 3.195900 0.159481 -3.776196 -0.930034 0.473534 -2.201295 -0.935472 1.750535 0.769060 2.979578 -1.228598 -8.839997 0.000000 0.000000 0.000000 -19.745771 -1.162509 -1.890797 -53.170181 -5.907509 -3.238633 -11.375305 -16.860876 2.212743 0.000000 0.000000 0.000000 18.836075 -0.731893 -1.826948 56.578474 6.524718 -2.029373 8.374860 16.252927 1.579364 0.000000 0.000000 0.000000 
0.000057 0.945640 0.001303 -1.917985 -1.343817 7.264358 5.504279 -0.313416 -3.827967 6.682213 -0.445412 -2.999093 9.951247 20.156897 20.857579 0.000000 0.000000 0.000000 -4.282374 0.661124 -7.509697 -2.745987 0.036096 -3.778818 2.763790 -3.561624 21.565550 0.000000 0.000000 0.000000 3.572142 0.186474 -4.133222 -1.737170 0.828321 -2.565355 -0.286563 2.257538 0.439383 2.558165 -0.977556 -8.693728 0.000000 0.000000 0.000000 -21.036501 -0.292929 -2.456962 -52.838050 -6.145427 -3.080567 -11.810026 -16.801822 2.275023 0.000000 0.000000 0.000000 17.971245 -1.124404 -2.043495 57.732612 5.962414 -2.266401 9.071021 16.805777 1.719493 0.000000 0.000000 0.000000 
0.000117 0.945551 0.002198 -1.630519 -0.450373 7.088345 5.176468 -0.312657 -3.609025 6.876096 -0.418847 -3.372245 9.399803 19.540944 20.568535 0.000000 0.000000 0.000000 -4.386605 0.637241 -7.332713 -3.044789 0.091038 -3.321976 2.246656 -4.124258 21.334199 0.000000 0.000000 0.000000 3.045444 0.160264 -3.804184 -0.837688 0.458750 -3.913132 -1.072044 1.701649 0.741486 2.431265 -1.009386 -7.592767 0.000000 0.000000 0.000000 -20.746061 -0.818104 -2.157999 -52.981652 -5.634448 -3.336672 -11.775152 -16.524798 2.228790 0.000000 0.000000 0.000000 19.547855 -0.151252 -1.621629 56.186858 5.389422 -2.545449 8.636609 17.187652 1.712683 0.000000 0.000000 0.000000 
0.000207 0.945250 0.002937 -1.955605 -0.652736 7.451634 5.260878 -0.324800 -3.835597 7.319990 -0.444348 -3.465263 9.565526 19.733479 20.668908 0.000000 0.000000 0.000000 -4.225717 0.706122 -8.261332 -2.741942 0.128691 -2.361704 2.281504 -4.051736 21.155259 0.000000 0.000000 0.000000 3.132434 0.190899 -4.279659 -1.313259 0.657455 -3.684872 0.058605 0.862206 -0.091421 1.863408 -0.836496 -5.983231 0.000000 0.000000 0.000000 -20.818254 0.000533 -2.312963 -53.820881 -6.063909 -3.180311 -11.220439 -16.080603 2.119840 0.000000 0.000000 0.000000 18.399694 0.133705 -1.693580 56.462351 5.029819 -2.586107 9.605762 17.436026 1.828089 0.000000 0.000000 0.000000 
0.000256 0.945399 0.003452 -1.766519 0.112660 7.384446 4.993571 -0.330001 -3.779803 7.571803 -0.429936 -3.740967 9.089882 19.201939 20.508078 0.000000 0.000000 0.000000 -4.441981 0.678563 -8.058821 -2.651841 0.131643 -2.256678 1.880053 -4.533873 21.154381 0.000000 0.000000 0.000000 2.738676 0.205366 -4.567326 -0.781544 0.433655 -3.555667 -0.127811 0.246523 -0.238146 1.313090 -0.461303 -5.901226 0.000000 0.000000 0.000000 -21.072580 -0.083302 -2.264577 -53.842537 -6.662048 -2.908162 -11.867477 -15.667125 2.153242 0.000000 0.000000 0.000000 18.155677 0.062358 -1.743651 56.541892 5.002165 -2.586558 10.172950 17.754416 1.938688 0.000000 0.000000 0.000000 
0.000368 0.945713 0.003686 -1.786764 0.075950 7.550854 4.794892 -0.339623 -3.941977 7.937860 -0.457349 -3.734501 9.091217 19.204717 20.685135 0.000000 0.000000 0.000000 -4.446058 0.702525 -8.422356 -2.625197 0.150240 -1.920652 1.891247 -4.541095 21.214046 0.000000 0.000000 0.000000 2.552160 0.227168 -4.943589 -0.760617 0.422956 -3.486943 0.244360 0.023665 -0.398413 1.438743 -0.611716 -5.359947 0.000000 0.000000 0.000000 -21.173341 0.215117 -2.356458 -54.088911 -6.895721 -2.817864 -11.676733 -15.657523 2.134125 0.000000 0.000000 0.000000 17.817711 0.279560 -1.677719 56.754718 5.356808 -2.403803 10.252878 17.537324 1.910289 0.000000 0.000000 0.000000 
0.000426 0.945723 0.003643 -1.710009 0.434629 7.541325 4.611367 -0.344506 -3.962943 8.178913 -0.459490 -3.851239 8.868329 18.955539 20.616751 0.000000 0.000000 0.000000 -4.490064 0.694924 -8.387206 -2.666364 0.160750 -1.837752 1.698981 -4.771590 21.206859 0.000000 0.000000 0.000000 2.323186 0.230621 -5.066579 -0.665929 0.380018 -3.232119 0.286702 -0.489102 -0.545085 1.291348 -0.495545 -5.607313 0.000000 0.000000 0.000000 -21.085072 0.393378 -2.361337 -54.170056 -6.933853 -2.808369 -12.084247 -15.668231 2.199334 0.000000 0.000000 0.000000 17.721301 0.535480 -1.613991 56.785947 5.363979 -2.380926 10.460331 17.821607 1.962092 0.000000 0.000000 0.000000 
0.000475 0.945799 0.003469 -1.743942 0.450677 7.700662 4.512334 -0.359285 -4.211695 8.419109 -0.487578 -3.746065 8.862066 18.952320 20.676864 0.000000 0.000000 0.000000 -4.458918 0.707421 -8.549318 -2.666426 0.158223 -1.876230 1.696418 -4.793993 21.281029 0.000000 0.000000 0.000000 2.225735 0.236138 -5.195185 -0.618891 0.358433 -3.180505 0.374057 -0.480601 -0.756832 1.446231 -0.655109 -5.029027 0.000000 0.000000 0.000000 -21.056856 0.370091 -2.350969 -54.049196 -6.990052 -2.755207 -12.171944 -15.422771 2.174007 0.000000 0.000000 0.000000 17.655757 0.587651 -1.587232 56.856579 5.551874 -2.271173 10.613013 17.501524 1.940683 0.000000 0.000000 0.000000 
0.000484 0.945921 0.003272 -1.799452 0.559216 7.726246 4.576483 -0.362258 -4.254098 8.435225 -0.483062 -3.792634 8.798675 18.883821 20.677968 0.000000 0.000000 0.000000 -4.401542 0.710238 -8.574531 -2.649006 0.157542 -1.868767 1.654755 -4.858305 21.348687 0.000000 0.000000 0.000000 2.168880 0.234732 -5.194718 -0.568400 0.337262 -3.180052 0.450499 -0.564062 -0.826796 1.591481 -0.768105 -4.931711 0.000000 0.000000 0.000000 -20.741180 0.367835 -2.304744 -54.169591 -7.046426 -2.729180 -12.216805 -14.858288 2.097126 0.000000 0.000000 0.000000 17.728229 0.642321 -1.578748 56.641944 5.700712 -2.183069 10.576675 17.138771 1.888512 0.000000 0.000000 0.000000 
0.000498 0.946074 0.003107 -1.829955 0.610493 7.754651 4.599007 -0.364304 -4.282884 8.462625 -0.479460 -3.839684 8.762030 18.843335 20.711235 0.000000 0.000000 0.000000 -4.414144 0.709721 -8.578299 -2.562622 0.146959 -1.922745 1.644843 -4.888765 21.435870 0.000000 0.000000 0.000000 2.214103 0.237215 -5.235329 -0.540801 0.327328 -3.257251 0.340715 -0.479579 -0.723782 1.697542 -0.852389 -4.802724 0.000000 0.000000 0.000000 -20.589438 0.208469 -2.233337 -54.000763 -7.214094 -2.648314 -12.235456 -14.268649 2.010141 0.000000 0.000000 0.000000 17.868115 0.759326 -1.496001 56.397045 5.914617 -2.085912 10.645683 16.829081 1.864151 0.000000 0.000000 0.000000 
0.000527 0.946198 0.002956 -1.804740 0.537118 7.745093 4.687562 -0.365553 -4.330519 8.236104 -0.476079 -3.723008 8.808130 18.893983 20.707061 0.000000 0.000000 0.000000 -4.499396 0.709997 -8.618518 -2.470825 0.141468 -1.875235 1.685402 -4.844780 21.456203 0.000000 0.000000 0.000000 2.225942 0.233492 -5.165372 -0.588848 0.348249 -3.285258 0.316370 -0.400928 -0.719094 1.800897 -0.920644 -4.848441 0.000000 0.000000 0.000000 -20.604888 0.210516 -2.247552 -53.745367 -7.071025 -2.698495 -12.128912 -13.959261 1.951169 0.000000 0.000000 0.000000 17.872907 0.642858 -1.547440 56.409827 6.160254 -1.971393 10.591467 16.331534 1.795529 0.000000 0.000000 0.000000 
0.000607 0.946228 0.002768 -1.822939 0.598532 7.743958 4.863858 -0.371356 -4.459827 7.963345 -0.474347 -3.541615 8.795903 18.881836 20.600359 0.000000 0.000000 0.000000 -4.615799 0.699804 -8.526391 -2.230946 0.111052 -2.041296 1.671019 -4.874903 21.529925 0.000000 0.000000 0.000000 2.355211 0.230755 -5.103632 -0.691331 0.394674 -3.360332 0.279957 -0.400749 -0.689935 1.866263 -0.936204 -5.157592 0.000000 0.000000 0.000000 -20.504238 0.307615 -2.298856 -53.654633 -7.023026 -2.715811 -12.130348 -13.716332 1.915191 0.000000 0.000000 0.000000 17.692186 0.530779 -1.576777 56.438620 6.123588 -1.993588 10.768915 16.017135 1.778747 0.000000 0.000000 0.000000 
0.000707 0.946303 0.002538 -1.863204 0.421984 7.734488 4.942594 -0.372917 -4.540937 7.853725 -0.489733 -3.324636 8.909526 19.007987 20.615156 0.000000 0.000000 0.000000 -4.648931 0.702880 -8.565182 -2.122855 0.100787 -2.046283 1.771843 -4.762596 21.568171 0.000000 0.000000 0.000000 2.486134 0.227972 -5.022225 -0.711233 0.402630 -3.401035 0.202005 -0.088809 -0.745553 2.081052 -1.073857 -5.222938 0.000000 0.000000 0.000000 -20.541836 0.081301 -2.242075 -53.418885 -6.838081 -2.769329 -12.043543 -13.720990 1.900341 0.000000 0.000000 0.000000 17.718799 0.386463 -1.602312 56.316066 6.065703 -2.015582 10.752857 15.775619 1.751942 0.000000 0.000000 0.000000 
0.000811 0.946325 0.002276 -1.918280 0.341184 7.664620 5.123896 -0.372524 -4.600654 7.611200 -0.497265 -3.076704 8.978836 19.087577 20.546149 0.000000 0.000000 0.000000 -4.641692 0.705631 -8.603855 -2.045272 0.102147 -1.902709 1.814562 -4.708718 21.559980 0.000000 0.000000 0.000000 2.583444 0.220637 -4.875285 -0.709592 0.402855 -3.480915 0.195500 0.057672 -0.713181 1.994822 -0.995315 -5.363736 0.000000 0.000000 0.000000 -20.559483 0.035541 -2.245649 -53.373597 -6.780205 -2.790308 -12.053966 -13.760128 1.904808 0.000000 0.000000 0.000000 17.620659 0.489283 -1.512984 56.207306 6.060649 -2.019950 10.818359 15.638264 1.745213 0.000000 0.000000 0.000000 
0.000897 0.946527 0.001974 -1.894035 0.337299 7.649791 5.227159 -0.377370 -4.734750 7.366653 -0.500550 -2.848227 8.987417 19.097746 20.515086 0.000000 0.000000 0.000000 -4.688220 0.708003 -8.674897 -2.018958 0.106698 -1.783905 1.821744 -4.711584 21.605872 0.000000 0.000000 0.000000 2.628932 0.214706 -4.773941 -0.716883 0.406349 -3.499157 0.167002 0.149797 -0.637181 2.026811 -0.984453 -5.667394 0.000000 0.000000 0.000000 -20.510254 0.021908 -2.255210 -53.318965 -6.751640 -2.802600 -12.122054 -13.929323 1.935541 0.000000 0.000000 0.000000 17.597458 0.588950 -1.433777 56.015224 6.204606 -1.956036 10.875993 15.430087 1.728228 0.000000 0.000000 0.000000 
